<?xml version="1.0" encoding="UTF-8"?>
<svg width="700pt" height="700pt" version="1.1" viewBox="0 0 700 700" xmlns="http://www.w3.org/2000/svg" xmlns:xlink="http://www.w3.org/1999/xlink">

 <g>
  <path d="m591.11 453.38v-147.75c0-4.2656-2.4805-8.1406-6.3516-9.9297l-110.19-50.898v-138.72c0-4.2656-2.4805-8.1406-6.3516-9.9297l-113.63-52.488c-2.9102-1.3438-6.2656-1.3438-9.1719 0l-113.63 52.488c-3.8711 1.7891-6.3516 5.6641-6.3516 9.9297v138.72l-110.19 50.902c-3.8711 1.7891-6.3516 5.6641-6.3516 9.9297v147.75c0 4.2656 2.4805 8.1406 6.3516 9.9297l114.8 53.027c1.4531 0.67187 3.0195 1.0078 4.5859 1.0078s3.1328-0.33594 4.5859-1.0078l110.79-51.18 110.79 51.18c1.4531 0.67187 3.0195 1.0078 4.5859 1.0078s3.1328-0.33594 4.5859-1.0078l114.8-53.027c3.875-1.7891 6.3516-5.6641 6.3516-9.9297zm-254.96-288.9v122.11l-88.844-41.039v-122.11zm21.875 1.9766 94.672-43.73v122.83l-94.672 43.73zm-122.47 97.766 88.797 41.02-89.34 40.812-88.793-40.566zm11.75 100.27 88.844-40.59v123.56l-88.844 41.039zm103.83 87.688-1.1367 2.4648-1.1367-2.4648zm6.8867-130.23 94.672 43.25v123.3l-94.672-43.73zm105.42 24.109-88.562-40.457 89.566-41.375 88.566 40.91zm-113.44-280.41 87.055 40.211-87.828 40.57-87.055-40.211zm-219.24 256.84 94.672 43.25v124.39l-94.672-43.73zm343.81 167.64v-125.09l94.672-43.25v124.61z"/>
 </g>
</svg>
