<?xml version="1.0" encoding="UTF-8"?>
<svg width="752pt" height="752pt" version="1.1" viewBox="0 0 752 752" xmlns="http://www.w3.org/2000/svg">
 <path d="m170.52 253.27c27.398-27.398 55.355-55.355 82.75-82.75l122.45 122.45c41.375-40.816 82.191-81.633 123.01-122.45 27.398 27.398 54.793 55.355 82.75 82.75-40.816 40.816-82.191 81.633-123.01 122.45 40.816 41.375 82.191 82.191 123.01 123.01-27.957 27.398-55.355 54.793-82.75 82.75-40.816-40.816-81.633-82.191-123.01-123.01-40.816 40.816-81.633 82.191-122.45 123.01-27.398-27.957-55.355-55.355-82.75-82.75 40.816-40.816 81.633-81.633 122.45-123.01l-122.45-122.45z" fill-rule="evenodd"/>
</svg>
