<?xml version="1.0" encoding="UTF-8"?>
<svg width="752pt" height="752pt" version="1.1" viewBox="150 150 450 450" xmlns="http://www.w3.org/2000/svg">
 <path d="m507.01 295.22 36.43-36.43-50.234-50.227-36.43 36.43c-13.789-8.5195-29.031-14.902-45.262-18.738l0.003906-51.527h-71.039v51.527c-16.23 3.8359-31.469 10.215-45.262 18.738l-36.43-36.43-50.223 50.227 36.43 36.43c-8.5195 13.789-14.902 29.031-18.738 45.262h-51.527v71.039h51.527c3.8359 16.23 10.215 31.469 18.738 45.262l-36.43 36.43 50.234 50.234 36.43-36.43c13.789 8.5195 29.031 14.902 45.262 18.738l-0.003907 51.516h71.039l-0.003906-51.527c16.23-3.8359 31.469-10.215 45.262-18.738l36.43 36.43 50.234-50.234-36.43-36.43c8.5195-13.789 14.902-29.031 18.738-45.262l51.516 0.003906v-71.039h-51.527c-3.8359-16.223-10.215-31.465-18.734-45.254zm-131.01 163.66c-45.773 0-82.875-37.105-82.875-82.875 0-45.773 37.105-82.879 82.875-82.879 45.773 0 82.879 37.105 82.879 82.875 0 45.773-37.105 82.879-82.879 82.879z"/>
</svg>
