<?xml version="1.0" encoding="UTF-8"?>
<svg width="752pt" height="752pt" version="1.1" viewBox="150 150 602 602" xmlns="http://www.w3.org/2000/svg">
 <g>
  <path d="m577.27 293.12h-402.54v-118.39h402.54zm-378.86-23.68h355.19v-71.039h-355.19z"/>
  <path d="m553.59 553.59h23.68v23.68h-23.68z"/>
  <path d="m529.91 577.27h-23.68v-23.68h23.68zm-47.355 0h-23.68v-23.68h23.68zm-47.359 0h-23.68v-23.68h23.68zm-47.359 0h-23.68v-23.68h23.68zm-47.355 0h-23.68v-23.68h23.68zm-47.359 0h-23.68v-23.68h23.68zm-47.359 0h-23.68v-23.68h23.68z"/>
  <path d="m174.73 553.59h23.68v23.68h-23.68z"/>
  <path d="m198.41 529.91h-23.68v-23.68h23.68zm0-47.355h-23.68v-23.68h23.68zm0-47.359h-23.68v-23.68h23.68zm0-47.359h-23.68v-23.68h23.68zm0-47.355h-23.68v-23.68h23.68z"/>
  <path d="m577.27 529.91h-23.68v-23.68h23.68zm0-47.355h-23.68v-23.68h23.68zm0-47.359h-23.68v-23.68h23.68zm0-47.359h-23.68v-23.68h23.68zm0-47.355h-23.68v-23.68h23.68z"/>
  <path d="m233.93 222.09h47.359v23.68h-47.359z"/>
  <path d="m328.64 222.09h189.43v23.68h-189.43z"/>
 </g>
</svg>