<?xml version="1.0" encoding="UTF-8"?>
<svg width="752pt" height="752pt" version="1.1" viewBox="230 230 300 300" xmlns="http://www.w3.org/2000/svg">
 <path d="m472.44 312.63-89.777-51.832c-4.1211-2.3789-9.2031-2.3789-13.324 0l-89.777 51.832c-4.125 2.3789-6.6641 6.7812-6.6641 11.539v103.66c0 4.7617 2.5391 9.1602 6.6641 11.539l89.777 51.832c4.125 2.3789 9.2031 2.3789 13.324 0l48.934-28.254h0.59375v-0.33984l40.25-23.238c4.1211-2.3789 6.6641-6.7812 6.6641-11.539l-0.003907-103.66c0-4.7578-2.5391-9.1562-6.6602-11.539zm-100.6 170.41-90.613-52.316v-104.63l90.613 52.316zm4.1523-111.85-90.605-52.312 44.902-25.926 90.453 52.223zm46.949 87.148-23.191 13.391-19.586 11.309v-104.64l42.777-24.871zm7.0195-118.52-90.418-52.203 28.316-16.348 8.1445-4.7031 90.293 52.129-7.8125 4.5391zm40.816 90.902-7.418 4.2812-31.168 17.996v-104.85l30.902-17.965 7.6836-4.4688z"/>
</svg>
