<?xml version="1.0" encoding="UTF-8"?>
<svg width="752pt" height="752pt" version="1.1" viewBox="150 150 450 450" xmlns="http://www.w3.org/2000/svg">
 <path d="m479.09 476.83c2.6016 2.6016 2.6016 6.8516 0 9.4531l-98.016 98.016c-1.3867 1.3867-3.2422 2.0078-5.0703 1.918-1.8281 0.09375-3.6836-0.53125-5.0703-1.918l-98.02-98.016c-2.6016-2.6016-2.6016-6.8516 0-9.4531l26.984-26.984c2.6016-2.6016 6.8516-2.6016 9.4531 0l40.883 40.883v-166.34c0-3.6758 3.0078-6.6875 6.6875-6.6875h38.16c3.6758 0 6.6875 3.0078 6.6875 6.6875v166.34l40.883-40.883c2.6016-2.6016 6.8516-2.6016 9.4531 0zm-276.64-101.46c1.4961 1.6641 3.418 1.6641 3.418 1.6641h85.668v-45.523h-45.016v-120.21h258.96v120.2h-45.016v45.523h85.414s2.082 0.007812 3.7969-1.8125c1.332-1.4141 1.332-3.4258 1.332-3.4258v-200.21c0-3.1914-2.6094-5.8008-5.8008-5.8008h-338.31c-3.25 0-5.9062 2.6562-5.9062 5.9062v200.58c0.003906 0.003906 0.007812 1.5 1.457 3.1055z"/>
</svg>
