<?xml version="1.0" encoding="UTF-8"?>
<svg width="752pt" height="752pt" version="1.1" viewBox="150 150 450 450" xmlns="http://www.w3.org/2000/svg">
 <g>
  <path d="m541.66 191.5h-331.32c-19.652 0-35.613 15.961-35.613 35.613v197.77c0 19.652 15.961 35.613 35.613 35.613h54.699c6.5352 0 11.887 5.3047 11.887 11.84l0.09375 64.453c0 9.6133 5.7773 18.234 14.68 21.926 2.9375 1.2305 6.0156 1.8008 9.0938 1.8008 6.1562 0 12.219-2.4141 16.766-6.9609l89.555-89.555c2.2266-2.2266 5.2109-3.457 8.3828-3.457h126.11c19.652 0 35.613-15.961 35.613-35.613v-197.81c0.046876-19.656-15.914-35.613-35.566-35.613zm11.887 233.38c0 6.5352-5.3047 11.887-11.887 11.887h-126.11c-9.5195 0-18.469 3.6953-25.195 10.418l-89.602 89.555-0.09375-64.453c-0.046875-19.605-16.008-35.566-35.613-35.566h-54.699c-6.5352 0-11.887-5.3047-11.887-11.887v-197.72c0-6.5352 5.3047-11.887 11.887-11.887h331.32c6.5352 0 11.887 5.3047 11.887 11.887z"/>
  <path d="m376 273.99c10.184 0 18.422-8.2422 18.422-18.422 0-10.184-8.2422-18.422-18.422-18.422-10.184 0-18.422 8.2422-18.422 18.422 0 10.18 8.2422 18.422 18.422 18.422z"/>
  <path d="m396.18 379.08h-8.3359v-83.113c0-6.5352-5.3047-11.887-11.887-11.887h-20.176c-6.5352 0-11.887 5.3047-11.887 11.887 0 6.5352 5.3047 11.887 11.887 11.887h8.3359v71.227h-8.3359c-6.5352 0-11.887 5.3047-11.887 11.887 0 6.582 5.3047 11.887 11.887 11.887h40.395c6.5352 0 11.887-5.3047 11.887-11.887 0.003906-6.582-5.3008-11.887-11.883-11.887z"/>
 </g>
</svg>
