<?xml version="1.0" encoding="UTF-8"?>
<svg width="752pt" height="752pt" version="1.1" viewBox="150 150 450 450" xmlns="http://www.w3.org/2000/svg">
    <path
        d="m387.05 502.29h-20.523c-12.629 0-18.941-6.3125-18.941-18.941v-14.207c-4.7344-1.5781-9.4727-3.1562-15.785-6.3125l-11.051 11.051c-6.3125 6.3125-15.785 12.629-26.836 0l-14.207-14.207c-9.4727-9.4727-7.8945-17.363 0-26.836l12.629-9.4766c-3.1562-6.3125-6.3125-12.629-7.8945-18.941h-15.785c-12.629 0-18.941-6.3125-18.941-18.941v-18.941c0-12.629 6.3125-18.941 18.941-18.941h14.207c1.5781-4.7344 3.1562-9.4727 6.3125-15.785l-11.051-11.051c-3.1562-3.1562-7.8945-7.8945-7.8945-14.207s3.1562-9.4727 6.3125-12.629l14.207-14.207c9.4727-9.4727 17.363-7.8945 26.836 1.5781l11.059 9.4648c6.3125-3.1562 12.629-6.3125 18.941-7.8945v-14.207c0-12.629 6.3125-18.941 18.941-18.941h20.523c15.785 0 18.941 11.051 18.941 18.941v14.207c6.3125 1.5781 12.629 4.7344 18.941 7.8945l9.4766-9.4727c3.1562-3.1562 7.8945-6.3125 12.629-7.8945 6.3125 0 11.051 3.1562 14.207 6.3125l14.207 14.207c3.1562 3.1562 6.3125 6.3125 6.3125 12.629 0 6.3125-3.1562 11.051-7.8945 14.207l-11.051 11.051c3.1562 4.7344 4.7344 9.4727 6.3125 15.785h14.207c15.785 0 18.941 11.051 18.941 18.941v18.941c0 7.8945-1.5781 18.941-18.941 18.941l-12.621 0.011719c-1.5781 6.3125-4.7344 12.629-7.8945 18.941l11.051 11.051c9.4727 9.4727 9.4727 17.363 1.5781 26.836l-14.207 14.207c-11.051 11.051-20.523 4.7344-26.836 0l-12.629-12.629c-4.7344 3.1562-9.4727 4.7344-15.785 6.3125v14.207c0 7.8945-3.1602 18.945-18.945 18.945zm-23.68-14.207h3.1562 20.523 3.1562v-4.7344-25.258l6.3125-1.5781c7.8945-1.5781 14.207-4.7344 22.102-9.4727l4.7344-3.1562 23.68 23.68s1.5781 0 3.1562-1.5781l14.207-14.207c1.5781-1.5781 1.5781-3.1562 1.5781-3.1562s0-1.5781-3.1562-3.1562l-18.941-18.941 3.1562-4.7344c4.7344-7.8945 7.8945-15.785 11.051-25.258l1.5781-6.3125h25.258 3.1562v-4.7344-18.941-4.7344h-3.1562-25.258l-1.5781-6.3125c-1.5781-7.8945-4.7344-14.207-9.4727-22.102l-3.1562-4.7344 18.941-18.941c1.5781-1.5781 3.1562-3.1562 3.1562-3.1562s0-1.5781-1.5781-3.1562l-14.207-14.207c-1.5781-1.5781-3.1562-1.5781-3.1562-1.5781s-1.5781 0-3.1562 3.1562l-17.363 17.363-4.7344-3.1562c-7.8945-4.7344-15.785-7.8945-25.258-11.051l-6.3125-1.5781v-23.699-4.7344h-3.1562-20.523-3.1562v4.7344 25.258l-6.3125 1.5781c-9.4727 1.5781-17.363 6.3125-25.258 11.051l-4.7344 3.1562-20.52-20.52s-1.5781 0-3.1562 1.5781l-14.207 14.207c-1.5781 1.5781-1.5781 3.1562-1.5781 3.1562s0 1.5781 3.1562 3.1562l18.941 18.941-3.1562 4.7344c-3.1562 6.3125-6.3125 14.207-9.4727 22.102l-1.5781 6.3125-28.422 0.003906h-3.1562v4.7344 18.941 4.7344h3.1562 25.258l1.5781 6.3125c1.5781 9.4727 6.3125 17.363 11.051 25.258l3.1562 4.7344-18.941 18.941c-1.5781 1.5781-3.1562 3.1562-3.1562 3.1562s0 1.5781 1.5781 3.1562l14.207 14.207c1.5781 1.5781 3.1562 1.5781 3.1562 1.5781s1.5781 0 3.1562-3.1562l18.941-18.941 4.7344 3.1562c6.3125 4.7344 14.207 6.3125 22.102 9.4727l6.3125 1.5781v25.258c1.582 0.011718 1.582 0.011718 1.582 1.5898zm12.629-69.457c-23.68 0-42.621-18.941-42.621-42.621 0-23.68 18.941-42.621 42.621-42.621s42.621 18.941 42.621 42.621c0.003906 23.676-18.941 42.621-42.621 42.621zm0-69.461c-15.785 0-28.414 12.629-28.414 26.836 0 15.785 12.629 28.414 28.414 28.414s26.836-12.629 26.836-28.414c1.582-15.785-11.047-26.836-26.836-26.836z" />
</svg>