<?xml version="1.0" encoding="UTF-8"?>
<svg width="752pt" height="752pt" version="1.1" viewBox="100 100 500 500" xmlns="http://www.w3.org/2000/svg">
 <path d="m240 451.33c5.7734 5.7734 5.7734 15.094 0 20.867-2.9609 2.957-6.6602 4.4375-10.508 4.4375-3.8477 0-7.5469-1.4805-10.508-4.293-41.883-42.176-64.969-97.824-64.969-157.02 0-59.199 23.086-114.84 64.969-157.02 5.7734-5.7734 15.094-5.7734 20.867 0 5.7734 5.7734 5.7734 15.094 0 20.867-36.258 36.555-56.238 84.949-56.238 136.16s19.98 99.602 56.387 136.01zm293.03-293.03c-5.7734-5.7734-15.094-5.7734-20.867 0-5.7734 5.7734-5.7734 15.094 0 20.867 36.258 36.555 56.238 84.949 56.238 136.16s-19.98 99.602-56.387 136.01c-5.7734 5.7734-5.7734 15.094 0 20.867 2.8125 2.8125 6.6602 4.293 10.508 4.293s7.5469-1.4805 10.508-4.293c41.883-42.031 64.969-97.68 64.969-156.88 0-59.199-23.086-114.84-64.969-157.02zm-230.43 62.75c-5.7734-5.7734-15.094-5.7734-20.867 0-25.16 25.309-38.922 58.754-38.922 94.273s13.762 68.965 38.922 94.125c2.9609 2.9609 6.6602 4.4414 10.508 4.4414 3.6992 0 7.5469-1.4805 10.359-4.293 5.7734-5.7734 5.7734-15.094 0-20.867-19.387-19.832-30.191-45.879-30.191-73.406 0-27.527 10.805-53.574 30.34-73.406 5.7695-5.7695 5.7695-15.094-0.14844-20.867zm167.68 0.14844c-5.7734-5.7734-15.094-5.7734-20.867 0-5.7734 5.7734-5.7734 15.094 0 20.867 19.387 19.684 30.191 45.73 30.191 73.258 0 27.527-10.805 53.574-30.34 73.406-5.7734 5.7734-5.7734 15.094 0 20.867 2.8125 2.8125 6.6602 4.293 10.359 4.293 3.8477 0 7.5469-1.4805 10.508-4.4414 25.309-25.16 39.07-58.605 39.07-94.125s-13.762-68.965-38.922-94.125zm-94.273 34.926c-32.707 0-59.199 26.492-59.199 59.199 0 27.527 18.941 50.465 44.398 57.125l0.003906 210.74c0 8.1406 6.6602 14.801 14.801 14.801s14.801-6.6602 14.801-14.801l-0.003907-210.74c25.453-6.6602 44.398-29.598 44.398-57.125 0-32.707-26.492-59.199-59.199-59.199z"/>
</svg>
