<?xml version="1.0" encoding="UTF-8"?>
<svg width="752pt" height="752pt" version="1.1" viewBox="100 100 500 500" xmlns="http://www.w3.org/2000/svg">
 <path d="m217.95 471.31c-41.145-42.031-63.934-97.23-63.934-155.98 0-59.199 23.086-114.84 64.969-157.02 5.7734-5.7734 15.094-5.7734 21.016 0 5.7734 5.7734 5.7734 15.094 0 21.016-36.406 36.406-56.387 84.801-56.387 136.01 0 50.762 19.535 98.711 55.352 134.97zm314.04-313.89c-5.7734-4.8828-14.504-4.5859-19.98 0.88672-5.4766 5.4766-5.7734 13.91-0.88672 19.832zm36.406 47.211 25.309-25.309c5.7734-5.7734 5.7734-15.242 0-21.016-5.7734-5.7734-15.242-5.7734-21.016 0l-213.56 213.56-200.83 200.82c-5.7734 5.7734-5.7734 15.242 0 21.016 2.9609 2.8125 6.6602 4.293 10.508 4.293s7.5469-1.4805 10.508-4.293l181.89-181.88v171.38c0 8.1406 6.6602 14.801 14.801 14.801s14.801-6.6602 14.801-14.801l-0.003907-200.97 17.609-17.609c6.8086-4.4414 12.578-10.062 16.871-16.723l0.29688-0.44531 52.094-52.094c1.332 6.5078 1.9258 13.168 1.9258 19.977 0 7.5469-0.88672 14.949-2.3672 22.199-4.293 19.09-13.762 36.852-27.973 51.207-5.7734 5.7734-5.7734 15.094 0.14844 20.867 2.8125 2.8125 6.6602 4.293 10.359 4.293 3.8477 0 7.5469-1.4805 10.508-4.4414 25.16-25.16 38.922-58.605 38.922-94.125 0-3.1094-0.14844-6.3633-0.29687-9.4727-0.88672-11.988-3.2578-23.531-7.1055-34.629l44.844-44.844c4.8828 9.4727 9.0273 19.238 12.285 29.449 6.2148 18.945 9.4727 39.074 9.4727 59.496 0 51.207-19.98 99.602-56.387 136.01-5.7734 5.918-5.7734 15.242 0 21.016 2.9609 2.8125 6.6602 4.293 10.508 4.293s7.5469-1.4805 10.508-4.293c41.883-42.18 64.969-97.828 64.969-157.02 0-28.711-5.4766-56.684-15.836-82.73-3.8477-9.6172-8.4336-18.941-13.762-27.969zm-287.55 203.79 20.867-20.867c-18.941-19.684-29.301-45.289-29.301-72.223 0-27.527 10.805-53.574 30.34-73.406 5.7734-5.7734 5.7734-15.094-0.14844-20.867-5.7734-5.7734-15.094-5.7734-20.867 0.14844-25.16 25.16-38.922 58.605-38.922 94.125 0 35.074 13.465 68.078 38.031 93.09zm188.25-188.25c-5.7734-4.8828-14.207-4.5859-19.684 0.88672-5.625 5.4766-5.918 14.059-1.0352 19.832zm-52.242 52.242c-10.656-10.062-25.012-16.281-40.848-16.281-32.707 0-59.199 26.492-59.199 59.199 0 15.836 6.2148 30.043 16.426 40.699z"/>
</svg>
