<?xml version="1.0" encoding="UTF-8"?>
<svg width="752pt" height="752pt" version="1.1" viewBox="150 150 450 450" xmlns="http://www.w3.org/2000/svg">
 <g>
  <path d="m554.54 553.59h23.68v23.68h-23.68z"/>
  <path d="m530.86 577.27h-23.68v-23.68h23.68zm-47.359 0h-23.68v-23.68h23.68zm-47.359 0h-23.68v-23.68h23.68zm-47.355 0h-23.68v-23.68h23.68zm-47.359 0h-23.68v-23.68h23.68zm-47.359 0h-23.68v-23.68h23.68zm-47.355 0h-23.68v-23.68h23.68z"/>
  <path d="m175.68 553.59h23.68v23.68h-23.68z"/>
  <path d="m199.36 529.91h-23.68v-23.68h23.68zm0-47.355h-23.68v-23.68h23.68zm0-47.359h-23.68v-23.68h23.68zm0-47.359h-23.68v-23.68h23.68zm0-47.355h-23.68v-23.68h23.68zm0-47.359h-23.68v-23.68h23.68zm0-47.359h-23.68v-23.68h23.68z"/>
  <path d="m175.68 174.73h23.68v23.68h-23.68z"/>
  <path d="m530.86 198.41h-23.68v-23.68h23.68zm-47.359 0h-23.68v-23.68h23.68zm-47.359 0h-23.68v-23.68h23.68zm-47.355 0h-23.68v-23.68h23.68zm-47.359 0h-23.68v-23.68h23.68zm-47.359 0h-23.68v-23.68h23.68zm-47.355 0h-23.68v-23.68h23.68z"/>
  <path d="m554.54 174.73h23.68v23.68h-23.68z"/>
  <path d="m578.22 529.91h-23.68v-23.68h23.68zm0-47.355h-23.68v-23.68h23.68zm0-47.359h-23.68v-23.68h23.68zm0-47.359h-23.68v-23.68h23.68zm0-47.355h-23.68v-23.68h23.68zm0-47.359h-23.68v-23.68h23.68zm0-47.359h-23.68v-23.68h23.68z"/>
  <path d="m528.5 387.84h-303.09v-71.508h303.09zm-279.41-23.68h255.73v-24.152h-255.73z"/>
 </g>
</svg>
