<?xml version="1.0" encoding="UTF-8"?>
<svg width="752pt" height="752pt" version="1.1" viewBox="125 125 500 500" xmlns="http://www.w3.org/2000/svg">
  <defs>
    <clipPath id="a">
     <path d="m139.21 139.21h473.58v473.58h-473.58z"/>
    </clipPath>
   </defs>
   <g clip-path="url(#a)">
    <path d="m376 331.6c-24.523 0-44.398 19.875-44.398 44.398s19.875 44.398 44.398 44.398 44.398-19.875 44.398-44.398c0-24.516-19.875-44.398-44.398-44.398zm0-96.195c-77.645 0-140.59 62.941-140.59 140.59 0 77.645 62.949 140.59 140.59 140.59s140.59-62.949 140.59-140.59c0.003906-77.645-62.945-140.59-140.59-140.59zm0 236.79c-53.129 0-96.195-43.074-96.195-96.195 0-53.129 43.066-96.195 96.195-96.195s96.195 43.066 96.195 96.195c0.003907 53.129-43.062 96.195-96.195 96.195zm0-332.99c-130.77 0-236.79 106.02-236.79 236.79s106.02 236.79 236.79 236.79 236.79-106.02 236.79-236.79c0.003907-130.77-106.01-236.79-236.79-236.79zm0 429.18c-106.25 0-192.39-86.133-192.39-192.39 0-106.25 86.141-192.39 192.39-192.39 106.25 0 192.39 86.133 192.39 192.39 0.003906 106.26-86.129 192.39-192.39 192.39z" fill-rule="evenodd"/>
   </g>
</svg>
